# xmcd
#
# Track frame offsets:
#	150
#	38358
#	85811
#	97168
#	115889
#	156352
#	187152
#	219498
#
# Disc length: 3321 seconds
#
# Revision: 1
# Processed by: cddbd v1.5.2PL0 Copyright (c) Steve Scherf et al.
# Submitted via: audiograbber 1.83.01
#
DISCID=680cf708
DTITLE=Grateful Dead - 78-10-17 Winterland Arena, San Francisco CA
DYEAR=1900
DGENRE=
TTITLE0=Promised Land
TTITLE1=Friend Of The Devil
TTITLE2=Mama Tried
TTITLE3=Mexicali Blues
TTITLE4=Tennessee Jed
TTITLE5=I Need A Miracle
TTITLE6=Stagger Lee
TTITLE7=Jack Straw
EXTD=
EXTT0=
EXTT1=
EXTT2=
EXTT3=
EXTT4=
EXTT5=
EXTT6=
EXTT7=
PLAYORDER=
